<svg width="120" height="120" viewBox="0 0 120 120" fill="none" xmlns="http://www.w3.org/2000/svg">
<path fill-rule="evenodd" clip-rule="evenodd" d="M48 17C51.3137 17 54 14.3137 54 11C54 7.68629 51.3137 5 48 5C44.6863 5 42 7.68629 42 11C42 14.3137 44.6863 17 48 17ZM85 42C85.3977 42 85.7894 41.9742 86.1735 41.9242C88.7896 41.5835 91.0527 40.1195 92.4629 38.032C92.6109 37.813 92.7494 37.5872 92.878 37.3551C93.5929 36.0646 94 34.5798 94 33C94 28.0294 89.9706 24 85 24C81.8796 24 79.1301 25.588 77.5155 28C76.5583 29.4301 76 31.1499 76 33C76 34.0096 76.1663 34.9805 76.4729 35.8866C76.4857 35.9245 76.4988 35.9623 76.5121 36C77.7476 39.4956 81.0813 42 85 42ZM55 72C62.1797 72 68 66.1797 68 59C68 51.8203 62.1797 46 55 46C47.8203 46 42 51.8203 42 59C42 66.1797 47.8203 72 55 72ZM70.8535 28H39.12C34.452 28 30.176 30.74 28.224 34.972L12.368 69.324C12.124 69.848 12 70.42 12 71V96C12 102.616 17.384 108 24 108H96C102.616 108 108 102.616 108 96V71C108 70.42 107.876 69.848 107.632 69.324L95.7134 43.4988C93.8329 45.4174 91.4411 46.8331 88.7585 47.5252L98.208 68H89.972C86.86 68 84.164 70.004 83.268 72.988L78.976 87.288C78.852 87.712 78.468 88 78.024 88H41.976C41.532 88 41.148 87.712 41.02 87.284L36.728 72.988C35.832 70.004 33.14 68 30.024 68H21.792L35.488 38.324C36.14 36.912 37.564 36 39.12 36H70.3001C70.1033 35.0307 70 34.0274 70 33C70 31.2468 70.3008 29.5639 70.8535 28Z" fill="#D2D8E2"/>
</svg>
