<svg width="66" height="101" viewBox="0 0 66 101" fill="none" xmlns="http://www.w3.org/2000/svg">
<path d="M17.411 78.6366C17.456 75.0747 18.3282 72.0893 20.0744 69.3578C20.4108 68.8322 20.6259 68.6857 21.1363 69.2132C22.8571 70.9912 24.6151 72.7302 26.3927 74.4574C26.8327 74.8852 26.8776 75.2702 26.7016 75.825C25.7317 78.9056 26.4064 81.5817 28.7256 83.8534C29.9849 85.0784 31.2345 86.3172 32.4548 87.5833C32.8693 88.0131 33.1274 88.0249 33.5479 87.5833C34.8111 86.2683 36.1272 85.0042 37.4061 83.7068C40.5349 80.5279 40.5642 76.0595 37.4237 72.8962C32.3531 67.7908 27.2179 62.7518 22.1708 57.6288C16.2749 51.6481 15.7978 42.2462 21.0424 35.9275C22.8317 33.7782 24.9534 31.926 26.9089 29.9292C28.708 28.0925 30.5599 26.3067 32.355 24.4584C32.8087 23.9934 33.0883 23.8996 33.5909 24.4095C37.1108 27.9753 40.7363 31.4434 44.2015 35.0737C49.3249 40.4233 50.0034 48.8131 45.9614 55.0029C45.5703 55.6164 45.3396 55.7356 44.7881 55.1514C43.0966 53.3929 41.3621 51.6677 39.606 49.9717C39.1563 49.538 39.1211 49.1667 39.299 48.604C40.2181 45.728 39.6901 43.1333 37.6055 40.9274C36.2817 39.5362 34.8815 38.2174 33.542 36.8399C33.1509 36.4277 32.8693 36.3925 32.4489 36.8399C31.1152 38.2213 29.7112 39.5382 28.3912 40.9274C25.4267 44.0398 25.5342 48.5083 28.6239 51.6051C33.5909 56.5796 38.5624 61.5496 43.5385 66.5149C50.2811 73.2518 50.2733 83.318 43.5151 90.0705C40.222 93.3608 36.9172 96.6433 33.6496 99.959C33.1294 100.488 32.8537 100.469 32.3452 99.959C28.9368 96.5065 25.4834 93.0971 22.0671 89.6524C18.9559 86.5263 17.5264 82.6928 17.411 78.6366Z" fill="#FE2500"/>
<path d="M0.423828 45.6907C0.554847 37.0742 3.70322 29.1709 10.1564 22.6665C17.5189 15.2419 24.9381 7.87979 32.3377 0.494251C32.6447 0.187497 32.8696 -0.322472 33.4719 0.283221C41.1864 8.0439 49.0378 15.6717 56.6251 23.5536C63.0588 30.2377 65.8708 38.4341 65.5012 47.6855C65.2079 55.0086 62.6696 61.5051 58.0703 67.224C57.5657 67.8512 57.2744 67.8551 56.762 67.267C56.0561 66.46 55.2524 65.7391 54.5093 64.9634C53.7584 64.2059 53.2833 63.2188 53.1599 62.1597C53.0366 61.1007 53.272 60.031 53.8288 59.1214C59.7755 48.9985 58.2326 36.6346 49.9608 28.3229C44.5401 22.8756 39.0862 17.4634 33.6714 12.0102C33.1278 11.4631 32.8364 11.4807 32.3025 12.0102C26.8388 17.5044 21.3602 22.9843 15.8665 28.4499C8.05423 36.2535 6.30014 48.5745 11.625 58.1816C12.0826 59.0061 12.5108 59.8443 12.6907 60.788C12.9938 62.3843 12.548 63.752 11.449 64.9126C10.6883 65.7176 9.8533 66.4542 9.13367 67.2924C8.60764 67.9078 8.32213 67.7476 7.88801 67.2103C4.5385 63.0753 2.22434 58.2018 1.13759 52.9941C0.66436 50.7511 0.459027 48.4866 0.423828 45.6907Z" fill="white"/>
</svg>
