<svg width="104" height="32" viewBox="0 0 104 32" fill="none" xmlns="http://www.w3.org/2000/svg">
<path d="M0 17.0496H4.71197C4.89148 18.4301 5.40755 19.3965 6.26019 19.9487C7.15771 20.5929 8.3918 20.915 9.96246 20.915C11.3536 20.915 12.4082 20.6619 13.1262 20.1558C13.8442 19.6496 14.2032 18.9133 14.2032 17.9469C14.2032 16.4743 12.1838 15.2779 8.14498 14.3575L8.01036 14.2885C8.01036 14.2885 7.83085 14.2425 7.47184 14.1504C5.18317 13.6442 3.65739 13.115 2.8945 12.5628C1.99698 12.0566 1.36872 11.3204 1.00971 10.354C0.560949 9.52566 0.33657 8.46726 0.33657 7.17876C0.33657 4.92389 1.09946 3.15221 2.62524 1.86372C4.15102 0.621239 6.37238 0 9.28932 0C12.0268 0 14.1359 0.644248 15.6168 1.93274C17.1426 3.35929 17.9504 5.22301 18.0401 7.52389H15.3476C14.3154 7.52389 13.575 7.04071 13.1262 6.07434C12.9018 5.61416 12.5877 5.22301 12.1838 4.90089C11.3761 4.30265 10.2766 4.00354 8.88544 4.00354C7.53916 4.00354 6.57433 4.25664 5.99094 4.76283C5.3178 5.26903 4.98123 5.9823 4.98123 6.90265C4.98123 8.14513 6.28263 9.06549 8.88544 9.66372C9.64833 9.89381 10.2093 10.0319 10.5683 10.0779C11.3761 10.354 12.0716 10.5841 12.655 10.7681C13.2833 10.9062 13.7769 11.0212 14.1359 11.1133C14.7642 11.3894 15.3924 11.6655 16.0207 11.9416C16.9182 12.4938 17.6138 13.2071 18.1074 14.0814C18.6011 15.0478 18.8479 16.1062 18.8479 17.2566C18.8479 19.7416 18.0401 21.6743 16.4246 23.0549C14.8091 24.3434 12.5204 24.9876 9.55858 24.9876C6.50701 24.9876 4.21834 24.3204 2.69256 22.9858C1.03215 21.6513 0.134628 19.6726 0 17.0496Z" fill="white"/>
<path d="M24.1657 22.7788C23.2233 21.9504 22.5502 20.846 22.1463 19.4655C21.7424 18.0389 21.5405 16.5664 21.5405 15.0478C21.5405 13.8053 21.6975 12.5628 22.0117 11.3204C22.3707 10.0779 22.9092 9.04248 23.6272 8.21416C24.794 6.83363 26.2973 6.02832 28.1372 5.79823C29.9771 5.52212 31.6375 5.66018 33.1184 6.21239C34.8237 6.90265 36.0803 8.09912 36.888 9.80177C37.6509 11.3204 38.0324 13.092 38.0324 15.1168C38.0324 16.5894 37.8753 17.8549 37.5612 18.9133C37.247 19.9717 36.8431 20.869 36.3495 21.6053C35.2725 23.1239 33.9038 24.0673 32.2434 24.4354C30.7625 24.8496 29.2591 24.8726 27.7333 24.5044C26.2524 24.1823 25.0632 23.6071 24.1657 22.7788ZM27.3968 10.6301C26.4544 11.6885 26.028 13.2761 26.1178 15.3929C26.2076 17.4637 26.589 18.9133 27.2621 19.7416C27.5314 20.1097 28.0026 20.4319 28.6757 20.708C29.3489 20.9381 30.022 20.9611 30.6951 20.777C31.4132 20.5469 32.0414 20.0177 32.5799 19.1894C33.1184 18.3611 33.4101 17.0265 33.455 15.1858C33.455 13.5292 33.1858 12.2867 32.6472 11.4584C32.1536 10.6301 31.5702 10.1009 30.8971 9.8708C30.2239 9.64071 29.5508 9.64071 28.8777 9.8708C28.2045 10.0549 27.7109 10.308 27.3968 10.6301Z" fill="white"/>
<path d="M45.5042 28.8531C45.5042 29.4973 45.2798 30.0496 44.8311 30.5097C44.3823 30.9699 43.8438 31.2 43.2155 31.2H40.9269V14.0124C40.9269 10.7912 41.8468 8.60531 43.6867 7.45487C45.5266 6.25841 47.5236 5.66018 49.6777 5.66018C50.7996 5.66018 51.9215 5.89027 53.0434 6.35044C54.2101 6.7646 55.1301 7.38584 55.8032 8.21416C57.1495 10.0088 57.8227 12.3097 57.8227 15.1168C57.8227 18.0159 57.1495 20.3628 55.8032 22.1575C54.457 23.9062 52.7292 24.7805 50.6201 24.7805C49.4982 24.7805 48.5109 24.5735 47.6582 24.1593C46.7607 23.6991 46.0427 22.9858 45.5042 22.0195V28.8531ZM53.178 15.3239C53.178 13.5292 52.8414 12.1487 52.1683 11.1823C51.4951 10.2159 50.5303 9.73274 49.2738 9.73274C48.0621 9.73274 47.1197 10.2159 46.4466 11.1823C45.8183 12.0566 45.5042 13.4372 45.5042 15.3239C45.5042 17.0726 45.8408 18.3841 46.5139 19.2584C47.1871 20.2248 48.1519 20.708 49.4084 20.708C50.5752 20.708 51.4951 20.2248 52.1683 19.2584C52.8414 18.292 53.178 16.9805 53.178 15.3239Z" fill="white"/>
<path d="M72.0259 11.2513C71.3527 10.285 70.4328 9.80177 69.266 9.80177C68.0095 9.80177 67.0447 10.2619 66.3715 11.1823C65.6984 12.1027 65.3618 13.3681 65.3618 14.9788V24.4354H60.7845V0.690265H63.0731C63.7014 0.690265 64.2399 0.920354 64.6887 1.38053C65.1374 1.84071 65.3618 2.39292 65.3618 3.03717V8.49027C66.1696 7.10973 67.3139 6.2354 68.7948 5.86726C70.2757 5.49911 71.6893 5.59115 73.0356 6.14336C74.2921 6.69558 75.3467 7.56991 76.1993 8.76637C77.052 9.96283 77.4783 11.6195 77.4783 13.7363V24.4354H72.9683V14.9097C72.9683 14.2195 72.901 13.5982 72.7663 13.046C72.6766 12.4478 72.4298 11.8496 72.0259 11.2513Z" fill="white"/>
<path d="M80.844 6.07434H83.2673C83.8956 6.07434 84.4341 6.30442 84.8828 6.7646C85.3316 7.22478 85.556 7.77699 85.556 8.42124V24.4354H80.844V6.07434ZM80.844 0.690265H83.2673C83.8956 0.690265 84.4341 0.920354 84.8828 1.38053C85.3316 1.84071 85.556 2.39292 85.556 3.03717V4.48673H80.844V0.690265Z" fill="white"/>
<path d="M100.365 18.7752H103.731C103.237 20.708 102.295 22.1805 100.904 23.1929C99.5124 24.2513 97.7622 24.7805 95.6531 24.7805C93.0951 24.7805 91.0982 23.9292 89.6621 22.2265C88.2261 20.5699 87.5081 18.2 87.5081 15.1168C87.5081 12.1717 88.2037 9.8708 89.5948 8.21416C91.0308 6.5115 93.0278 5.66018 95.5858 5.66018C98.2783 5.66018 100.365 6.4885 101.846 8.14513C103.282 9.84779 104 12.2177 104 15.2549C104 15.4389 104 15.6 104 15.7381C104 15.8761 104 15.9681 104 16.0142C104 16.2442 103.978 16.4053 103.933 16.4973H92.2874C92.3323 17.9239 92.6688 18.9823 93.2971 19.6726C93.8805 20.4088 94.7556 20.777 95.9223 20.777C96.6852 20.777 97.3359 20.6159 97.8744 20.2938C98.0091 20.2478 98.1212 20.1788 98.211 20.0867C98.3456 19.9487 98.4803 19.8106 98.6149 19.6726C98.6598 19.5345 98.8168 19.3504 99.0861 19.1204C99.4002 18.8903 99.8265 18.7752 100.365 18.7752ZM92.2874 13.3912H99.1534C99.0636 12.1487 98.7495 11.2283 98.211 10.6301C97.6276 9.98584 96.7974 9.66372 95.7204 9.66372C94.7331 9.66372 93.9253 9.98584 93.2971 10.6301C92.6688 11.2743 92.3323 12.1947 92.2874 13.3912Z" fill="white"/>
</svg>
